<mxfile host="app.diagrams.net" modified="2023-11-16T08:10:12.675Z" agent="Mozilla/5.0 (Windows NT 10.0; Win64; x64; rv:109.0) Gecko/20100101 Firefox/119.0" etag="7PE9bGLUASfsOCLMhEBK" version="22.1.1" type="device">
  <diagram name="Seite-1" id="ZoV8Ejw0ZwYLJFgNHFwW">
    <mxGraphModel dx="1242" dy="659" grid="1" gridSize="10" guides="1" tooltips="1" connect="1" arrows="1" fold="1" page="1" pageScale="1" pageWidth="827" pageHeight="1169" math="0" shadow="0">
      <root>
        <mxCell id="0" />
        <mxCell id="1" parent="0" />
        <mxCell id="0N4XaftFxlRpEUNrAd0b-1" value="" style="endArrow=none;html=1;rounded=0;strokeColor=#006666;strokeWidth=3;" edge="1" parent="1">
          <mxGeometry width="50" height="50" relative="1" as="geometry">
            <mxPoint x="570" y="340" as="sourcePoint" />
            <mxPoint x="30" y="340" as="targetPoint" />
          </mxGeometry>
        </mxCell>
        <mxCell id="0N4XaftFxlRpEUNrAd0b-2" value="ellensAuto : Auto" style="swimlane;fontStyle=4;align=center;verticalAlign=top;childLayout=stackLayout;horizontal=1;startSize=26;horizontalStack=0;resizeParent=1;resizeParentMax=0;resizeLast=0;collapsible=1;marginBottom=0;" vertex="1" parent="1">
          <mxGeometry x="50" y="180" width="140" height="78" as="geometry" />
        </mxCell>
        <mxCell id="0N4XaftFxlRpEUNrAd0b-3" value="modell = Toyota Yaris" style="text;strokeColor=none;fillColor=none;align=left;verticalAlign=top;spacingLeft=4;spacingRight=4;overflow=hidden;rotatable=0;points=[[0,0.5],[1,0.5]];portConstraint=eastwest;" vertex="1" parent="0N4XaftFxlRpEUNrAd0b-2">
          <mxGeometry y="26" width="140" height="26" as="geometry" />
        </mxCell>
        <mxCell id="0N4XaftFxlRpEUNrAd0b-4" value="farbe = stahlblau" style="text;strokeColor=none;fillColor=none;align=left;verticalAlign=top;spacingLeft=4;spacingRight=4;overflow=hidden;rotatable=0;points=[[0,0.5],[1,0.5]];portConstraint=eastwest;" vertex="1" parent="0N4XaftFxlRpEUNrAd0b-2">
          <mxGeometry y="52" width="140" height="26" as="geometry" />
        </mxCell>
        <mxCell id="0N4XaftFxlRpEUNrAd0b-5" value="heikesAuto : Auto" style="swimlane;fontStyle=4;align=center;verticalAlign=top;childLayout=stackLayout;horizontal=1;startSize=26;horizontalStack=0;resizeParent=1;resizeParentMax=0;resizeLast=0;collapsible=1;marginBottom=0;" vertex="1" parent="1">
          <mxGeometry x="230" y="180" width="140" height="78" as="geometry" />
        </mxCell>
        <mxCell id="0N4XaftFxlRpEUNrAd0b-6" value="modell = Toyota Yaris" style="text;strokeColor=none;fillColor=none;align=left;verticalAlign=top;spacingLeft=4;spacingRight=4;overflow=hidden;rotatable=0;points=[[0,0.5],[1,0.5]];portConstraint=eastwest;" vertex="1" parent="0N4XaftFxlRpEUNrAd0b-5">
          <mxGeometry y="26" width="140" height="26" as="geometry" />
        </mxCell>
        <mxCell id="0N4XaftFxlRpEUNrAd0b-7" value="farbe = weiÃŸ" style="text;strokeColor=none;fillColor=none;align=left;verticalAlign=top;spacingLeft=4;spacingRight=4;overflow=hidden;rotatable=0;points=[[0,0.5],[1,0.5]];portConstraint=eastwest;" vertex="1" parent="0N4XaftFxlRpEUNrAd0b-5">
          <mxGeometry y="52" width="140" height="26" as="geometry" />
        </mxCell>
        <mxCell id="0N4XaftFxlRpEUNrAd0b-8" value="marvinsAuto : Auto" style="swimlane;fontStyle=4;align=center;verticalAlign=top;childLayout=stackLayout;horizontal=1;startSize=26;horizontalStack=0;resizeParent=1;resizeParentMax=0;resizeLast=0;collapsible=1;marginBottom=0;" vertex="1" parent="1">
          <mxGeometry x="410" y="180" width="140" height="78" as="geometry" />
        </mxCell>
        <mxCell id="0N4XaftFxlRpEUNrAd0b-9" value="modell = VW Golf" style="text;strokeColor=none;fillColor=none;align=left;verticalAlign=top;spacingLeft=4;spacingRight=4;overflow=hidden;rotatable=0;points=[[0,0.5],[1,0.5]];portConstraint=eastwest;" vertex="1" parent="0N4XaftFxlRpEUNrAd0b-8">
          <mxGeometry y="26" width="140" height="26" as="geometry" />
        </mxCell>
        <mxCell id="0N4XaftFxlRpEUNrAd0b-10" value="farbe = rot" style="text;strokeColor=none;fillColor=none;align=left;verticalAlign=top;spacingLeft=4;spacingRight=4;overflow=hidden;rotatable=0;points=[[0,0.5],[1,0.5]];portConstraint=eastwest;" vertex="1" parent="0N4XaftFxlRpEUNrAd0b-8">
          <mxGeometry y="52" width="140" height="26" as="geometry" />
        </mxCell>
        <mxCell id="0N4XaftFxlRpEUNrAd0b-11" value="" style="endArrow=open;html=1;endFill=0;entryX=0.25;entryY=0;entryDx=0;entryDy=0;exitX=0.5;exitY=1;exitDx=0;exitDy=0;strokeColor=#006666;" edge="1" parent="1" source="0N4XaftFxlRpEUNrAd0b-12" target="0N4XaftFxlRpEUNrAd0b-2">
          <mxGeometry width="50" height="50" relative="1" as="geometry">
            <mxPoint x="80" y="150" as="sourcePoint" />
            <mxPoint x="100" y="280" as="targetPoint" />
          </mxGeometry>
        </mxCell>
        <mxCell id="0N4XaftFxlRpEUNrAd0b-12" value="Objekt" style="text;html=1;strokeColor=none;fillColor=none;align=center;verticalAlign=middle;whiteSpace=wrap;rounded=0;fontColor=#006666;" vertex="1" parent="1">
          <mxGeometry x="50" y="128" width="40" height="20" as="geometry" />
        </mxCell>
        <mxCell id="0N4XaftFxlRpEUNrAd0b-13" value="" style="endArrow=open;html=1;endFill=0;entryX=0.25;entryY=0;entryDx=0;entryDy=0;exitX=0.5;exitY=1;exitDx=0;exitDy=0;strokeColor=#006666;" edge="1" parent="1" source="0N4XaftFxlRpEUNrAd0b-14" target="0N4XaftFxlRpEUNrAd0b-5">
          <mxGeometry width="50" height="50" relative="1" as="geometry">
            <mxPoint x="260" y="150" as="sourcePoint" />
            <mxPoint x="290" y="150" as="targetPoint" />
          </mxGeometry>
        </mxCell>
        <mxCell id="0N4XaftFxlRpEUNrAd0b-14" value="Objekt" style="text;html=1;strokeColor=none;fillColor=none;align=center;verticalAlign=middle;whiteSpace=wrap;rounded=0;fontColor=#006666;" vertex="1" parent="1">
          <mxGeometry x="230" y="130" width="40" height="20" as="geometry" />
        </mxCell>
        <mxCell id="0N4XaftFxlRpEUNrAd0b-15" value="" style="endArrow=open;html=1;endFill=0;entryX=0.25;entryY=0;entryDx=0;entryDy=0;exitX=0.5;exitY=1;exitDx=0;exitDy=0;strokeColor=#006666;" edge="1" parent="1" source="0N4XaftFxlRpEUNrAd0b-16" target="0N4XaftFxlRpEUNrAd0b-8">
          <mxGeometry width="50" height="50" relative="1" as="geometry">
            <mxPoint x="440" y="150" as="sourcePoint" />
            <mxPoint x="470" y="160" as="targetPoint" />
          </mxGeometry>
        </mxCell>
        <mxCell id="0N4XaftFxlRpEUNrAd0b-16" value="Objekt" style="text;html=1;strokeColor=none;fillColor=none;align=center;verticalAlign=middle;whiteSpace=wrap;rounded=0;fontColor=#006666;" vertex="1" parent="1">
          <mxGeometry x="410" y="130" width="40" height="20" as="geometry" />
        </mxCell>
        <mxCell id="0N4XaftFxlRpEUNrAd0b-17" value="Attribut" style="text;html=1;strokeColor=none;fillColor=none;align=center;verticalAlign=middle;whiteSpace=wrap;rounded=0;fontColor=#006666;" vertex="1" parent="1">
          <mxGeometry x="50" y="304" width="40" height="20" as="geometry" />
        </mxCell>
        <mxCell id="0N4XaftFxlRpEUNrAd0b-18" value="Wert" style="text;html=1;strokeColor=none;fillColor=none;align=center;verticalAlign=middle;whiteSpace=wrap;rounded=0;fontColor=#006666;" vertex="1" parent="1">
          <mxGeometry x="100" y="304" width="40" height="20" as="geometry" />
        </mxCell>
        <mxCell id="0N4XaftFxlRpEUNrAd0b-19" value="" style="endArrow=open;html=1;endFill=0;exitX=0.5;exitY=0;exitDx=0;exitDy=0;entryX=0.1;entryY=1.077;entryDx=0;entryDy=0;entryPerimeter=0;strokeColor=#006666;" edge="1" parent="1">
          <mxGeometry width="50" height="50" relative="1" as="geometry">
            <mxPoint x="70" y="305" as="sourcePoint" />
            <mxPoint x="70" y="251.00199999999995" as="targetPoint" />
          </mxGeometry>
        </mxCell>
        <mxCell id="0N4XaftFxlRpEUNrAd0b-20" value="" style="endArrow=open;html=1;endFill=0;exitX=0.5;exitY=0;exitDx=0;exitDy=0;entryX=0.35;entryY=1.077;entryDx=0;entryDy=0;entryPerimeter=0;strokeColor=#006666;" edge="1" parent="1">
          <mxGeometry width="50" height="50" relative="1" as="geometry">
            <mxPoint x="120" y="305" as="sourcePoint" />
            <mxPoint x="120" y="251.00199999999995" as="targetPoint" />
          </mxGeometry>
        </mxCell>
        <mxCell id="0N4XaftFxlRpEUNrAd0b-21" value="Attribut" style="text;html=1;strokeColor=none;fillColor=none;align=center;verticalAlign=middle;whiteSpace=wrap;rounded=0;fontColor=#006666;" vertex="1" parent="1">
          <mxGeometry x="230" y="304" width="40" height="20" as="geometry" />
        </mxCell>
        <mxCell id="0N4XaftFxlRpEUNrAd0b-22" value="Wert" style="text;html=1;strokeColor=none;fillColor=none;align=center;verticalAlign=middle;whiteSpace=wrap;rounded=0;fontColor=#006666;" vertex="1" parent="1">
          <mxGeometry x="270" y="304" width="40" height="20" as="geometry" />
        </mxCell>
        <mxCell id="0N4XaftFxlRpEUNrAd0b-23" value="" style="endArrow=open;html=1;endFill=0;exitX=0.5;exitY=0;exitDx=0;exitDy=0;entryX=0.1;entryY=1.077;entryDx=0;entryDy=0;entryPerimeter=0;strokeColor=#006666;" edge="1" parent="1">
          <mxGeometry width="50" height="50" relative="1" as="geometry">
            <mxPoint x="250" y="305" as="sourcePoint" />
            <mxPoint x="250" y="251.00199999999995" as="targetPoint" />
          </mxGeometry>
        </mxCell>
        <mxCell id="0N4XaftFxlRpEUNrAd0b-24" value="" style="endArrow=open;html=1;endFill=0;exitX=0.5;exitY=0;exitDx=0;exitDy=0;entryX=0.35;entryY=1.077;entryDx=0;entryDy=0;entryPerimeter=0;strokeColor=#006666;" edge="1" parent="1">
          <mxGeometry width="50" height="50" relative="1" as="geometry">
            <mxPoint x="290" y="305" as="sourcePoint" />
            <mxPoint x="290" y="251.00199999999995" as="targetPoint" />
          </mxGeometry>
        </mxCell>
        <mxCell id="0N4XaftFxlRpEUNrAd0b-25" value="Attribut" style="text;html=1;strokeColor=none;fillColor=none;align=center;verticalAlign=middle;whiteSpace=wrap;rounded=0;fontColor=#006666;" vertex="1" parent="1">
          <mxGeometry x="410" y="304" width="40" height="20" as="geometry" />
        </mxCell>
        <mxCell id="0N4XaftFxlRpEUNrAd0b-26" value="Wert" style="text;html=1;strokeColor=none;fillColor=none;align=center;verticalAlign=middle;whiteSpace=wrap;rounded=0;fontColor=#006666;" vertex="1" parent="1">
          <mxGeometry x="446" y="304" width="40" height="20" as="geometry" />
        </mxCell>
        <mxCell id="0N4XaftFxlRpEUNrAd0b-27" value="" style="endArrow=open;html=1;endFill=0;exitX=0.5;exitY=0;exitDx=0;exitDy=0;entryX=0.1;entryY=1.077;entryDx=0;entryDy=0;entryPerimeter=0;strokeColor=#006666;" edge="1" parent="1">
          <mxGeometry width="50" height="50" relative="1" as="geometry">
            <mxPoint x="430" y="305" as="sourcePoint" />
            <mxPoint x="430" y="251.00199999999995" as="targetPoint" />
          </mxGeometry>
        </mxCell>
        <mxCell id="0N4XaftFxlRpEUNrAd0b-28" value="" style="endArrow=open;html=1;endFill=0;exitX=0.5;exitY=0;exitDx=0;exitDy=0;entryX=0.3;entryY=1.064;entryDx=0;entryDy=0;entryPerimeter=0;strokeColor=#006666;" edge="1" parent="1">
          <mxGeometry width="50" height="50" relative="1" as="geometry">
            <mxPoint x="466" y="305" as="sourcePoint" />
            <mxPoint x="466" y="250.664" as="targetPoint" />
          </mxGeometry>
        </mxCell>
        <mxCell id="0N4XaftFxlRpEUNrAd0b-29" value="hugosAuto" style="swimlane;fontStyle=4;align=center;verticalAlign=top;childLayout=stackLayout;horizontal=1;startSize=26;horizontalStack=0;resizeParent=1;resizeParentMax=0;resizeLast=0;collapsible=1;marginBottom=0;" vertex="1" parent="1">
          <mxGeometry x="230" y="360" width="140" height="104" as="geometry" />
        </mxCell>
        <mxCell id="0N4XaftFxlRpEUNrAd0b-30" value="modell = Porsche" style="text;strokeColor=none;fillColor=none;align=left;verticalAlign=top;spacingLeft=4;spacingRight=4;overflow=hidden;rotatable=0;points=[[0,0.5],[1,0.5]];portConstraint=eastwest;" vertex="1" parent="0N4XaftFxlRpEUNrAd0b-29">
          <mxGeometry y="26" width="140" height="26" as="geometry" />
        </mxCell>
        <mxCell id="0N4XaftFxlRpEUNrAd0b-31" value="farbe = grÃ¼n metallic" style="text;strokeColor=none;fillColor=none;align=left;verticalAlign=top;spacingLeft=4;spacingRight=4;overflow=hidden;rotatable=0;points=[[0,0.5],[1,0.5]];portConstraint=eastwest;" vertex="1" parent="0N4XaftFxlRpEUNrAd0b-29">
          <mxGeometry y="52" width="140" height="26" as="geometry" />
        </mxCell>
        <mxCell id="0N4XaftFxlRpEUNrAd0b-32" value="baujahr = 1977" style="text;strokeColor=none;fillColor=none;align=left;verticalAlign=top;spacingLeft=4;spacingRight=4;overflow=hidden;rotatable=0;points=[[0,0.5],[1,0.5]];portConstraint=eastwest;" vertex="1" parent="0N4XaftFxlRpEUNrAd0b-29">
          <mxGeometry y="78" width="140" height="26" as="geometry" />
        </mxCell>
      </root>
    </mxGraphModel>
  </diagram>
</mxfile>
